<svg width="170.525px" height="218.72000732421876px" xmlns="http://www.w3.org/2000/svg" viewBox="164.7375 -34.36000366210938 170.525 218.72000732421876" style="background: rgba(0, 0, 0, 0);" preserveAspectRatio="xMidYMid"><defs><filter id="editing-vr"><feFlood flood-color="#f00" flood-opacity="0.7" result="c1"></feFlood><feFlood flood-color="#0000ff" flood-opacity="0.7" result="c3"></feFlood><feComposite operator="in" in="c1" in2="SourceAlpha" result="text-c1"></feComposite><feComposite operator="in" in="c3" in2="SourceAlpha" result="text-c3"></feComposite><feOffset in="text-c1" dx="-5" dy="1" result="text1"></feOffset><feOffset in="text-c3" dx="5" dy="-1" result="text3"></feOffset><feBlend in="SourceGraphic" in2="text1" mode="multiply" result="text4"></feBlend><feBlend in="text4" in2="text3" mode="multiply"></feBlend></filter></defs><g filter="url(#editing-vr)"><g transform="translate(194.66000366210938, 116.39644920825958)"><path d="M102.20-74.29L102.20 0L87.49 0L87.49-47.95L61.60-2.41L61.60-2.41Q60.64-0.67 58.93 0.22L58.93 0.22L58.93 0.22Q57.22 1.12 55.25 1.12L55.25 1.12L55.25 1.12Q53.34 1.12 51.69 0.22L51.69 0.22L51.69 0.22Q50.03-0.67 49.08-2.41L49.08-2.41L23.08-47.95L23.08 0L8.48 0L8.48-74.29L8.48-74.29Q8.48-76.82 9.97-78.78L9.97-78.78L9.97-78.78Q11.46-80.75 13.87-81.42L13.87-81.42L13.87-81.42Q15.05-81.70 16.23-81.62L16.23-81.62L16.23-81.62Q17.41-81.53 18.50-81.11L18.50-81.11L18.50-81.11Q19.60-80.69 20.50-79.93L20.50-79.93L20.50-79.93Q21.39-79.17 22.01-78.11L22.01-78.11L55.25-20.33L88.50-78.11L88.50-78.11Q89.79-80.24 92.06-81.14L92.06-81.14L92.06-81.14Q94.34-82.04 96.81-81.42L96.81-81.42L96.81-81.42Q99.17-80.75 100.68-78.78L100.68-78.78L100.68-78.78Q102.20-76.82 102.20-74.29L102.20-74.29Z" fill="#000000"></path></g></g><style>text {
  font-size: 64px;
  font-family: Arial Black;
  dominant-baseline: central;
  text-anchor: middle;
}</style></svg>